<?xml version="1.0" encoding="UTF-8" standalone="no"?>
<!DOCTYPE svg PUBLIC "-//W3C//DTD SVG 1.1//EN"
 "http://www.w3.org/Graphics/SVG/1.1/DTD/svg11.dtd">
<!-- Generated by graphviz version 2.40.1 (0)
 -->
<!-- Title: snakemake_dag Pages: 1 -->
<svg width="1781pt" height="1052pt"
 viewBox="0.00 0.00 1780.50 1052.00" xmlns="http://www.w3.org/2000/svg" xmlns:xlink="http://www.w3.org/1999/xlink">
<g id="graph0" class="graph" transform="scale(1 1) rotate(0) translate(4 1048)">
<title>snakemake_dag</title>
<polygon fill="#ffffff" stroke="transparent" points="-4,4 -4,-1048 1776.5,-1048 1776.5,4 -4,4"/>
<!-- 0 -->
<g id="node1" class="node">
<title>0</title>
<path fill="none" stroke="#d8cb56" stroke-width="2" d="M951.5,-36C951.5,-36 921.5,-36 921.5,-36 915.5,-36 909.5,-30 909.5,-24 909.5,-24 909.5,-12 909.5,-12 909.5,-6 915.5,0 921.5,0 921.5,0 951.5,0 951.5,0 957.5,0 963.5,-6 963.5,-12 963.5,-12 963.5,-24 963.5,-24 963.5,-30 957.5,-36 951.5,-36"/>
<text text-anchor="middle" x="936.5" y="-15.5" font-family="sans" font-size="10.00" fill="#000000">all</text>
</g>
<!-- 1 -->
<g id="node2" class="node">
<title>1</title>
<path fill="none" stroke="#56d88a" stroke-width="2" d="M968.5,-180C968.5,-180 904.5,-180 904.5,-180 898.5,-180 892.5,-174 892.5,-168 892.5,-168 892.5,-156 892.5,-156 892.5,-150 898.5,-144 904.5,-144 904.5,-144 968.5,-144 968.5,-144 974.5,-144 980.5,-150 980.5,-156 980.5,-156 980.5,-168 980.5,-168 980.5,-174 974.5,-180 968.5,-180"/>
<text text-anchor="middle" x="936.5" y="-159.5" font-family="sans" font-size="10.00" fill="#000000">plotASVLength</text>
</g>
<!-- 1&#45;&gt;0 -->
<g id="edge13" class="edge">
<title>1&#45;&gt;0</title>
<path fill="none" stroke="#c0c0c0" stroke-width="2" d="M936.5,-143.7623C936.5,-119.201 936.5,-75.2474 936.5,-46.3541"/>
<polygon fill="#c0c0c0" stroke="#c0c0c0" stroke-width="2" points="940.0001,-46.0896 936.5,-36.0896 933.0001,-46.0897 940.0001,-46.0896"/>
</g>
<!-- 25 -->
<g id="node26" class="node">
<title>25</title>
<path fill="none" stroke="#56d87b" stroke-width="2" d="M1027.5,-108C1027.5,-108 989.5,-108 989.5,-108 983.5,-108 977.5,-102 977.5,-96 977.5,-96 977.5,-84 977.5,-84 977.5,-78 983.5,-72 989.5,-72 989.5,-72 1027.5,-72 1027.5,-72 1033.5,-72 1039.5,-78 1039.5,-84 1039.5,-84 1039.5,-96 1039.5,-96 1039.5,-102 1033.5,-108 1027.5,-108"/>
<text text-anchor="middle" x="1008.5" y="-87.5" font-family="sans" font-size="10.00" fill="#000000">qc_report</text>
</g>
<!-- 1&#45;&gt;25 -->
<g id="edge51" class="edge">
<title>1&#45;&gt;25</title>
<path fill="none" stroke="#c0c0c0" stroke-width="2" d="M954.6686,-143.8314C963.2152,-135.2848 973.5557,-124.9443 982.8802,-115.6198"/>
<polygon fill="#c0c0c0" stroke="#c0c0c0" stroke-width="2" points="985.4905,-117.9592 990.0867,-108.4133 980.5408,-113.0095 985.4905,-117.9592"/>
</g>
<!-- 2 -->
<g id="node3" class="node">
<title>2</title>
<path fill="none" stroke="#a7d856" stroke-width="2" d="M942,-540C942,-540 865,-540 865,-540 859,-540 853,-534 853,-528 853,-528 853,-516 853,-516 853,-510 859,-504 865,-504 865,-504 942,-504 942,-504 948,-504 954,-510 954,-516 954,-516 954,-528 954,-528 954,-534 948,-540 942,-540"/>
<text text-anchor="middle" x="903.5" y="-519.5" font-family="sans" font-size="10.00" fill="#000000">removeChimeras</text>
</g>
<!-- 2&#45;&gt;1 -->
<g id="edge20" class="edge">
<title>2&#45;&gt;1</title>
<path fill="none" stroke="#c0c0c0" stroke-width="2" d="M918.3695,-503.7109C938.1082,-477.5269 970.5,-427.081 970.5,-378 970.5,-378 970.5,-378 970.5,-306 970.5,-264.8199 957.1668,-218.7455 947.1995,-190.0555"/>
<polygon fill="#c0c0c0" stroke="#c0c0c0" stroke-width="2" points="950.3773,-188.5477 943.7105,-180.3133 943.7871,-190.9079 950.3773,-188.5477"/>
</g>
<!-- 13 -->
<g id="node14" class="node">
<title>13</title>
<path fill="none" stroke="#56d8a9" stroke-width="2" d="M765,-468C765,-468 730,-468 730,-468 724,-468 718,-462 718,-456 718,-456 718,-444 718,-444 718,-438 724,-432 730,-432 730,-432 765,-432 765,-432 771,-432 777,-438 777,-444 777,-444 777,-456 777,-456 777,-462 771,-468 765,-468"/>
<text text-anchor="middle" x="747.5" y="-447.5" font-family="sans" font-size="10.00" fill="#000000">RDPtaxa</text>
</g>
<!-- 2&#45;&gt;13 -->
<g id="edge31" class="edge">
<title>2&#45;&gt;13</title>
<path fill="none" stroke="#c0c0c0" stroke-width="2" d="M864.1346,-503.8314C840.2295,-492.7982 809.8473,-478.7757 786.0851,-467.8085"/>
<polygon fill="#c0c0c0" stroke="#c0c0c0" stroke-width="2" points="787.5492,-464.6295 777.0029,-463.6167 784.6157,-470.9852 787.5492,-464.6295"/>
</g>
<!-- 14 -->
<g id="node15" class="node">
<title>14</title>
<path fill="none" stroke="#56d85b" stroke-width="2" d="M1102.5,-468C1102.5,-468 1010.5,-468 1010.5,-468 1004.5,-468 998.5,-462 998.5,-456 998.5,-456 998.5,-444 998.5,-444 998.5,-438 1004.5,-432 1010.5,-432 1010.5,-432 1102.5,-432 1102.5,-432 1108.5,-432 1114.5,-438 1114.5,-444 1114.5,-444 1114.5,-456 1114.5,-456 1114.5,-462 1108.5,-468 1102.5,-468"/>
<text text-anchor="middle" x="1056.5" y="-447.5" font-family="sans" font-size="10.00" fill="#000000">combineReadCounts</text>
</g>
<!-- 2&#45;&gt;14 -->
<g id="edge35" class="edge">
<title>2&#45;&gt;14</title>
<path fill="none" stroke="#c0c0c0" stroke-width="2" d="M942.1084,-503.8314C962.3893,-494.2874 987.4238,-482.5065 1008.8971,-472.4013"/>
<polygon fill="#c0c0c0" stroke="#c0c0c0" stroke-width="2" points="1010.6114,-475.4629 1018.1693,-468.038 1007.6308,-469.1291 1010.6114,-475.4629"/>
</g>
<!-- 28 -->
<g id="node29" class="node">
<title>28</title>
<path fill="none" stroke="#88d856" stroke-width="2" d="M863.5,-468C863.5,-468 825.5,-468 825.5,-468 819.5,-468 813.5,-462 813.5,-456 813.5,-456 813.5,-444 813.5,-444 813.5,-438 819.5,-432 825.5,-432 825.5,-432 863.5,-432 863.5,-432 869.5,-432 875.5,-438 875.5,-444 875.5,-444 875.5,-456 875.5,-456 875.5,-462 869.5,-468 863.5,-468"/>
<text text-anchor="middle" x="844.5" y="-447.5" font-family="sans" font-size="10.00" fill="#000000">fasta_file</text>
</g>
<!-- 2&#45;&gt;28 -->
<g id="edge56" class="edge">
<title>2&#45;&gt;28</title>
<path fill="none" stroke="#c0c0c0" stroke-width="2" d="M888.6118,-503.8314C881.747,-495.454 873.4699,-485.3531 865.9489,-476.1749"/>
<polygon fill="#c0c0c0" stroke="#c0c0c0" stroke-width="2" points="868.6341,-473.9297 859.5886,-468.4133 863.2197,-478.3665 868.6341,-473.9297"/>
</g>
<!-- 29 -->
<g id="node30" class="node">
<title>29</title>
<path fill="none" stroke="#d89556" stroke-width="2" d="M801,-396C801,-396 694,-396 694,-396 688,-396 682,-390 682,-384 682,-384 682,-372 682,-372 682,-366 688,-360 694,-360 694,-360 801,-360 801,-360 807,-360 813,-366 813,-372 813,-372 813,-384 813,-384 813,-390 807,-396 801,-396"/>
<text text-anchor="middle" x="747.5" y="-375.5" font-family="sans" font-size="10.00" fill="#000000">combining_annotations</text>
</g>
<!-- 2&#45;&gt;29 -->
<g id="edge57" class="edge">
<title>2&#45;&gt;29</title>
<path fill="none" stroke="#c0c0c0" stroke-width="2" d="M904.4511,-503.9575C904.5209,-484.0781 901.612,-452.2464 884.5,-432 875.1591,-420.9481 847.2902,-409.1113 819.106,-399.3449"/>
<polygon fill="#c0c0c0" stroke="#c0c0c0" stroke-width="2" points="820.1564,-396.0054 809.5621,-396.1163 817.9132,-402.6363 820.1564,-396.0054"/>
</g>
<!-- 3 -->
<g id="node4" class="node">
<title>3</title>
<path fill="none" stroke="#56c1d8" stroke-width="2" d="M1090.5,-612C1090.5,-612 1022.5,-612 1022.5,-612 1016.5,-612 1010.5,-606 1010.5,-600 1010.5,-600 1010.5,-588 1010.5,-588 1010.5,-582 1016.5,-576 1022.5,-576 1022.5,-576 1090.5,-576 1090.5,-576 1096.5,-576 1102.5,-582 1102.5,-588 1102.5,-588 1102.5,-600 1102.5,-600 1102.5,-606 1096.5,-612 1090.5,-612"/>
<text text-anchor="middle" x="1056.5" y="-591.5" font-family="sans" font-size="10.00" fill="#000000">merge_seqtabs</text>
</g>
<!-- 3&#45;&gt;2 -->
<g id="edge21" class="edge">
<title>3&#45;&gt;2</title>
<path fill="none" stroke="#c0c0c0" stroke-width="2" d="M1017.8916,-575.8314C997.6107,-566.2874 972.5762,-554.5065 951.1029,-544.4013"/>
<polygon fill="#c0c0c0" stroke="#c0c0c0" stroke-width="2" points="952.3692,-541.1291 941.8307,-540.038 949.3886,-547.4629 952.3692,-541.1291"/>
</g>
<!-- 3&#45;&gt;14 -->
<g id="edge34" class="edge">
<title>3&#45;&gt;14</title>
<path fill="none" stroke="#c0c0c0" stroke-width="2" d="M1056.5,-575.7623C1056.5,-551.201 1056.5,-507.2474 1056.5,-478.3541"/>
<polygon fill="#c0c0c0" stroke="#c0c0c0" stroke-width="2" points="1060.0001,-478.0896 1056.5,-468.0896 1053.0001,-478.0897 1060.0001,-478.0896"/>
</g>
<!-- 4 -->
<g id="node5" class="node">
<title>4</title>
<path fill="none" stroke="#d88556" stroke-width="2" d="M1109,-684C1109,-684 1038,-684 1038,-684 1032,-684 1026,-678 1026,-672 1026,-672 1026,-660 1026,-660 1026,-654 1032,-648 1038,-648 1038,-648 1109,-648 1109,-648 1115,-648 1121,-654 1121,-660 1121,-660 1121,-672 1121,-672 1121,-678 1115,-684 1109,-684"/>
<text text-anchor="middle" x="1073.5" y="-663.5" font-family="sans" font-size="10.00" fill="#000000">process_sample</text>
</g>
<!-- 4&#45;&gt;3 -->
<g id="edge22" class="edge">
<title>4&#45;&gt;3</title>
<path fill="none" stroke="#c0c0c0" stroke-width="2" d="M1069.2102,-647.8314C1067.392,-640.131 1065.2301,-630.9743 1063.2095,-622.4166"/>
<polygon fill="#c0c0c0" stroke="#c0c0c0" stroke-width="2" points="1066.5519,-621.3414 1060.8476,-612.4133 1059.7392,-622.95 1066.5519,-621.3414"/>
</g>
<!-- 5 -->
<g id="node6" class="node">
<title>5</title>
<path fill="none" stroke="#d85656" stroke-width="2" d="M1171,-828C1171,-828 1124,-828 1124,-828 1118,-828 1112,-822 1112,-816 1112,-816 1112,-804 1112,-804 1112,-798 1118,-792 1124,-792 1124,-792 1171,-792 1171,-792 1177,-792 1183,-798 1183,-804 1183,-804 1183,-816 1183,-816 1183,-822 1177,-828 1171,-828"/>
<text text-anchor="middle" x="1147.5" y="-807.5" font-family="sans" font-size="10.00" fill="#000000">dada2Filter</text>
</g>
<!-- 5&#45;&gt;0 -->
<g id="edge1" class="edge">
<title>5&#45;&gt;0</title>
<path fill="none" stroke="#c0c0c0" stroke-width="2" d="M1183.102,-803.6825C1274.1769,-786.5151 1508.5,-735.5844 1508.5,-666 1508.5,-666 1508.5,-666 1508.5,-450 1508.5,-310.7782 1661.8587,-253.2011 1575.5,-144 1499.9357,-48.4484 1098.89,-24.483 973.7966,-19.2896"/>
<polygon fill="#c0c0c0" stroke="#c0c0c0" stroke-width="2" points="973.7085,-15.7834 963.5769,-18.882 973.4295,-22.7778 973.7085,-15.7834"/>
</g>
<!-- 5&#45;&gt;4 -->
<g id="edge23" class="edge">
<title>5&#45;&gt;4</title>
<path fill="none" stroke="#c0c0c0" stroke-width="2" d="M1123.3993,-791.914C1112.3668,-782.4021 1100.0885,-769.8473 1092.5,-756 1082.107,-737.035 1077.3928,-712.9498 1075.2576,-694.4684"/>
<polygon fill="#c0c0c0" stroke="#c0c0c0" stroke-width="2" points="1078.7221,-693.9318 1074.2751,-684.3155 1071.7547,-694.6062 1078.7221,-693.9318"/>
</g>
<!-- 9 -->
<g id="node10" class="node">
<title>9</title>
<path fill="none" stroke="#b6d856" stroke-width="2" d="M1181.5,-756C1181.5,-756 1113.5,-756 1113.5,-756 1107.5,-756 1101.5,-750 1101.5,-744 1101.5,-744 1101.5,-732 1101.5,-732 1101.5,-726 1107.5,-720 1113.5,-720 1113.5,-720 1181.5,-720 1181.5,-720 1187.5,-720 1193.5,-726 1193.5,-732 1193.5,-732 1193.5,-744 1193.5,-744 1193.5,-750 1187.5,-756 1181.5,-756"/>
<text text-anchor="middle" x="1147.5" y="-735.5" font-family="sans" font-size="10.00" fill="#000000">learnErrorRates</text>
</g>
<!-- 5&#45;&gt;9 -->
<g id="edge28" class="edge">
<title>5&#45;&gt;9</title>
<path fill="none" stroke="#c0c0c0" stroke-width="2" d="M1147.5,-791.8314C1147.5,-784.131 1147.5,-774.9743 1147.5,-766.4166"/>
<polygon fill="#c0c0c0" stroke="#c0c0c0" stroke-width="2" points="1151.0001,-766.4132 1147.5,-756.4133 1144.0001,-766.4133 1151.0001,-766.4132"/>
</g>
<!-- 12 -->
<g id="node13" class="node">
<title>12</title>
<path fill="none" stroke="#56d8c9" stroke-width="2" d="M1256,-180C1256,-180 1125,-180 1125,-180 1119,-180 1113,-174 1113,-168 1113,-168 1113,-156 1113,-156 1113,-150 1119,-144 1125,-144 1125,-144 1256,-144 1256,-144 1262,-144 1268,-150 1268,-156 1268,-156 1268,-168 1268,-168 1268,-174 1262,-180 1256,-180"/>
<text text-anchor="middle" x="1190.5" y="-159.5" font-family="sans" font-size="10.00" fill="#000000">plotQualityProfileAfterdada2</text>
</g>
<!-- 5&#45;&gt;12 -->
<g id="edge30" class="edge">
<title>5&#45;&gt;12</title>
<path fill="none" stroke="#c0c0c0" stroke-width="2" d="M1170.1479,-791.8602C1181.0951,-782.1563 1193.7283,-769.4504 1202.5,-756 1225.8575,-720.1841 1236.5,-708.7592 1236.5,-666 1236.5,-666 1236.5,-666 1236.5,-306 1236.5,-263.7421 1218.3024,-217.6755 1204.7986,-189.3085"/>
<polygon fill="#c0c0c0" stroke="#c0c0c0" stroke-width="2" points="1207.8022,-187.4843 1200.2554,-180.0482 1201.5178,-190.5675 1207.8022,-187.4843"/>
</g>
<!-- 5&#45;&gt;14 -->
<g id="edge33" class="edge">
<title>5&#45;&gt;14</title>
<path fill="none" stroke="#c0c0c0" stroke-width="2" d="M1111.6975,-797.2254C1063.1696,-777.3433 982.5,-734.0573 982.5,-666 982.5,-666 982.5,-666 982.5,-594 982.5,-548.6585 1011.8824,-503.2822 1033.618,-475.9182"/>
<polygon fill="#c0c0c0" stroke="#c0c0c0" stroke-width="2" points="1036.4532,-477.9801 1040.077,-468.0242 1031.0356,-473.5472 1036.4532,-477.9801"/>
</g>
<!-- 23 -->
<g id="node24" class="node">
<title>23</title>
<path fill="none" stroke="#5692d8" stroke-width="2" d="M544,-108C544,-108 449,-108 449,-108 443,-108 437,-102 437,-96 437,-96 437,-84 437,-84 437,-78 443,-72 449,-72 449,-72 544,-72 544,-72 550,-72 556,-78 556,-84 556,-84 556,-96 556,-96 556,-102 550,-108 544,-108"/>
<text text-anchor="middle" x="496.5" y="-87.5" font-family="sans" font-size="10.00" fill="#000000">seqkit_counts_dada2</text>
</g>
<!-- 5&#45;&gt;23 -->
<g id="edge42" class="edge">
<title>5&#45;&gt;23</title>
<path fill="none" stroke="#c0c0c0" stroke-width="2" d="M1111.5721,-805.9266C975.0971,-789.9777 496.5,-729.5193 496.5,-666 496.5,-666 496.5,-666 496.5,-234 496.5,-193.876 496.5,-147.4631 496.5,-118.4177"/>
<polygon fill="#c0c0c0" stroke="#c0c0c0" stroke-width="2" points="500.0001,-118.1853 496.5,-108.1854 493.0001,-118.1854 500.0001,-118.1853"/>
</g>
<!-- 6 -->
<g id="node7" class="node">
<title>6</title>
<path fill="none" stroke="#97d856" stroke-width="2" d="M1371,-900C1371,-900 1322,-900 1322,-900 1316,-900 1310,-894 1310,-888 1310,-888 1310,-876 1310,-876 1310,-870 1316,-864 1322,-864 1322,-864 1371,-864 1371,-864 1377,-864 1383,-870 1383,-876 1383,-876 1383,-888 1383,-888 1383,-894 1377,-900 1371,-900"/>
<text text-anchor="middle" x="1346.5" y="-879.5" font-family="sans" font-size="10.00" fill="#000000">cutAdaptQc</text>
</g>
<!-- 6&#45;&gt;5 -->
<g id="edge25" class="edge">
<title>6&#45;&gt;5</title>
<path fill="none" stroke="#c0c0c0" stroke-width="2" d="M1309.536,-868.6261C1276.556,-856.6936 1228.161,-839.1839 1192.8501,-826.4081"/>
<polygon fill="#c0c0c0" stroke="#c0c0c0" stroke-width="2" points="1193.8555,-823.0498 1183.2612,-822.9387 1191.4739,-829.6323 1193.8555,-823.0498"/>
</g>
<!-- 10 -->
<g id="node11" class="node">
<title>10</title>
<path fill="none" stroke="#56d8d8" stroke-width="2" d="M1414.5,-180C1414.5,-180 1298.5,-180 1298.5,-180 1292.5,-180 1286.5,-174 1286.5,-168 1286.5,-168 1286.5,-156 1286.5,-156 1286.5,-150 1292.5,-144 1298.5,-144 1298.5,-144 1414.5,-144 1414.5,-144 1420.5,-144 1426.5,-150 1426.5,-156 1426.5,-156 1426.5,-168 1426.5,-168 1426.5,-174 1420.5,-180 1414.5,-180"/>
<text text-anchor="middle" x="1356.5" y="-159.5" font-family="sans" font-size="10.00" fill="#000000">plotQualityProfileAfterQC</text>
</g>
<!-- 6&#45;&gt;10 -->
<g id="edge29" class="edge">
<title>6&#45;&gt;10</title>
<path fill="none" stroke="#c0c0c0" stroke-width="2" d="M1383.1831,-864.5134C1440.9214,-835.7772 1546.5,-777.7909 1546.5,-738 1546.5,-738 1546.5,-738 1546.5,-306 1546.5,-243.9183 1481.2738,-205.1511 1427.2553,-183.6903"/>
<polygon fill="#c0c0c0" stroke="#c0c0c0" stroke-width="2" points="1428.2532,-180.3244 1417.663,-180.0105 1425.746,-186.86 1428.2532,-180.3244"/>
</g>
<!-- 18 -->
<g id="node19" class="node">
<title>18</title>
<path fill="none" stroke="#d8ac56" stroke-width="2" d="M1625,-828C1625,-828 1588,-828 1588,-828 1582,-828 1576,-822 1576,-816 1576,-816 1576,-804 1576,-804 1576,-798 1582,-792 1588,-792 1588,-792 1625,-792 1625,-792 1631,-792 1637,-798 1637,-804 1637,-804 1637,-816 1637,-816 1637,-822 1631,-828 1625,-828"/>
<text text-anchor="middle" x="1606.5" y="-807.5" font-family="sans" font-size="10.00" fill="#000000">fastqcFilt</text>
</g>
<!-- 6&#45;&gt;18 -->
<g id="edge38" class="edge">
<title>6&#45;&gt;18</title>
<path fill="none" stroke="#c0c0c0" stroke-width="2" d="M1383.2237,-867.025C1386.3401,-865.939 1389.4613,-864.9135 1392.5,-864 1465.6284,-842.0149 1487.3716,-849.9851 1560.5,-828 1562.3478,-827.4445 1564.2262,-826.8475 1566.1155,-826.2208"/>
<polygon fill="#c0c0c0" stroke="#c0c0c0" stroke-width="2" points="1567.2933,-829.5168 1575.5615,-822.892 1564.9667,-822.9147 1567.2933,-829.5168"/>
</g>
<!-- 24 -->
<g id="node25" class="node">
<title>24</title>
<path fill="none" stroke="#56a2d8" stroke-width="2" d="M281.5,-108C281.5,-108 173.5,-108 173.5,-108 167.5,-108 161.5,-102 161.5,-96 161.5,-96 161.5,-84 161.5,-84 161.5,-78 167.5,-72 173.5,-72 173.5,-72 281.5,-72 281.5,-72 287.5,-72 293.5,-78 293.5,-84 293.5,-84 293.5,-96 293.5,-96 293.5,-102 287.5,-108 281.5,-108"/>
<text text-anchor="middle" x="227.5" y="-87.5" font-family="sans" font-size="10.00" fill="#000000">seqkit_counts_cutadapt</text>
</g>
<!-- 6&#45;&gt;24 -->
<g id="edge44" class="edge">
<title>6&#45;&gt;24</title>
<path fill="none" stroke="#c0c0c0" stroke-width="2" d="M1309.901,-881.1488C1119.0342,-876.2377 246.5,-847.7829 246.5,-738 246.5,-738 246.5,-738 246.5,-234 246.5,-193.5282 239.032,-147.2037 233.46,-118.2725"/>
<polygon fill="#c0c0c0" stroke="#c0c0c0" stroke-width="2" points="236.8177,-117.2111 231.4368,-108.0844 229.9517,-118.5746 236.8177,-117.2111"/>
</g>
<!-- 7 -->
<g id="node8" class="node">
<title>7</title>
<path fill="none" stroke="#d87556" stroke-width="2" d="M1396.5,-972C1396.5,-972 1360.5,-972 1360.5,-972 1354.5,-972 1348.5,-966 1348.5,-960 1348.5,-960 1348.5,-948 1348.5,-948 1348.5,-942 1354.5,-936 1360.5,-936 1360.5,-936 1396.5,-936 1396.5,-936 1402.5,-936 1408.5,-942 1408.5,-948 1408.5,-948 1408.5,-960 1408.5,-960 1408.5,-966 1402.5,-972 1396.5,-972"/>
<text text-anchor="middle" x="1378.5" y="-951.5" font-family="sans" font-size="10.00" fill="#000000">cutAdapt</text>
</g>
<!-- 7&#45;&gt;6 -->
<g id="edge26" class="edge">
<title>7&#45;&gt;6</title>
<path fill="none" stroke="#c0c0c0" stroke-width="2" d="M1370.425,-935.8314C1366.8898,-927.8771 1362.664,-918.369 1358.7544,-909.5723"/>
<polygon fill="#c0c0c0" stroke="#c0c0c0" stroke-width="2" points="1361.9435,-908.1299 1354.6837,-900.4133 1355.5468,-910.9729 1361.9435,-908.1299"/>
</g>
<!-- 33 -->
<g id="node34" class="node">
<title>33</title>
<path fill="none" stroke="#d6d856" stroke-width="2" d="M131,-108C131,-108 12,-108 12,-108 6,-108 0,-102 0,-96 0,-96 0,-84 0,-84 0,-78 6,-72 12,-72 12,-72 131,-72 131,-72 137,-72 143,-78 143,-84 143,-84 143,-96 143,-96 143,-102 137,-108 131,-108"/>
<text text-anchor="middle" x="71.5" y="-87.5" font-family="sans" font-size="10.00" fill="#000000">seqkit_counts_primerRMV</text>
</g>
<!-- 7&#45;&gt;33 -->
<g id="edge65" class="edge">
<title>7&#45;&gt;33</title>
<path fill="none" stroke="#c0c0c0" stroke-width="2" d="M1348.4779,-953.8304C1156.9136,-952.3636 113.5,-938.4774 113.5,-810 113.5,-810 113.5,-810 113.5,-234 113.5,-192.0688 96.8848,-145.918 84.5552,-117.4435"/>
<polygon fill="#c0c0c0" stroke="#c0c0c0" stroke-width="2" points="87.6775,-115.8513 80.4071,-108.1447 81.2848,-118.7032 87.6775,-115.8513"/>
</g>
<!-- 34 -->
<g id="node35" class="node">
<title>34</title>
<path fill="none" stroke="#56b1d8" stroke-width="2" d="M1523.5,-900C1523.5,-900 1413.5,-900 1413.5,-900 1407.5,-900 1401.5,-894 1401.5,-888 1401.5,-888 1401.5,-876 1401.5,-876 1401.5,-870 1407.5,-864 1413.5,-864 1413.5,-864 1523.5,-864 1523.5,-864 1529.5,-864 1535.5,-870 1535.5,-876 1535.5,-876 1535.5,-888 1535.5,-888 1535.5,-894 1529.5,-900 1523.5,-900"/>
<text text-anchor="middle" x="1468.5" y="-879.5" font-family="sans" font-size="10.00" fill="#000000">primerRMVinvestigation</text>
</g>
<!-- 7&#45;&gt;34 -->
<g id="edge66" class="edge">
<title>7&#45;&gt;34</title>
<path fill="none" stroke="#c0c0c0" stroke-width="2" d="M1401.2108,-935.8314C1412.296,-926.9632 1425.7954,-916.1637 1437.7852,-906.5718"/>
<polygon fill="#c0c0c0" stroke="#c0c0c0" stroke-width="2" points="1440.1742,-909.1429 1445.7965,-900.1628 1435.8013,-903.6768 1440.1742,-909.1429"/>
</g>
<!-- 8 -->
<g id="node9" class="node">
<title>8</title>
<path fill="none" stroke="#78d856" stroke-width="2" d="M1432,-1044C1432,-1044 1383,-1044 1383,-1044 1377,-1044 1371,-1038 1371,-1032 1371,-1032 1371,-1020 1371,-1020 1371,-1014 1377,-1008 1383,-1008 1383,-1008 1432,-1008 1432,-1008 1438,-1008 1444,-1014 1444,-1020 1444,-1020 1444,-1032 1444,-1032 1444,-1038 1438,-1044 1432,-1044"/>
<text text-anchor="middle" x="1407.5" y="-1023.5" font-family="sans" font-size="10.00" fill="#000000">filterNsRaw</text>
</g>
<!-- 8&#45;&gt;7 -->
<g id="edge27" class="edge">
<title>8&#45;&gt;7</title>
<path fill="none" stroke="#c0c0c0" stroke-width="2" d="M1400.1821,-1007.8314C1397.0124,-999.9617 1393.23,-990.5712 1389.7187,-981.8533"/>
<polygon fill="#c0c0c0" stroke="#c0c0c0" stroke-width="2" points="1392.8992,-980.3815 1385.9165,-972.4133 1386.4061,-982.9968 1392.8992,-980.3815"/>
</g>
<!-- 8&#45;&gt;34 -->
<g id="edge67" class="edge">
<title>8&#45;&gt;34</title>
<path fill="none" stroke="#c0c0c0" stroke-width="2" d="M1415.2257,-1007.7623C1425.7218,-982.9846 1444.5781,-938.4714 1456.8109,-909.5939"/>
<polygon fill="#c0c0c0" stroke="#c0c0c0" stroke-width="2" points="1460.1592,-910.6628 1460.837,-900.0896 1453.7136,-907.9323 1460.1592,-910.6628"/>
</g>
<!-- 9&#45;&gt;4 -->
<g id="edge24" class="edge">
<title>9&#45;&gt;4</title>
<path fill="none" stroke="#c0c0c0" stroke-width="2" d="M1128.8267,-719.8314C1119.9751,-711.219 1109.2514,-700.7851 1099.6105,-691.4048"/>
<polygon fill="#c0c0c0" stroke="#c0c0c0" stroke-width="2" points="1101.7754,-688.6279 1092.1674,-684.1628 1096.8939,-693.645 1101.7754,-688.6279"/>
</g>
<!-- 10&#45;&gt;0 -->
<g id="edge16" class="edge">
<title>10&#45;&gt;0</title>
<path fill="none" stroke="#c0c0c0" stroke-width="2" d="M1315.9336,-143.9688C1271.6463,-124.6764 1198.3723,-93.8996 1133.5,-72 1078.4811,-53.4267 1013.2473,-36.5206 973.3761,-26.7477"/>
<polygon fill="#c0c0c0" stroke="#c0c0c0" stroke-width="2" points="974.1078,-23.3237 963.5639,-24.3614 972.4535,-30.1255 974.1078,-23.3237"/>
</g>
<!-- 10&#45;&gt;25 -->
<g id="edge49" class="edge">
<title>10&#45;&gt;25</title>
<path fill="none" stroke="#c0c0c0" stroke-width="2" d="M1286.3096,-145.908C1283.3346,-145.2573 1280.3885,-144.6189 1277.5,-144 1196.9381,-126.7389 1102.4383,-108.1512 1049.613,-97.9096"/>
<polygon fill="#c0c0c0" stroke="#c0c0c0" stroke-width="2" points="1050.1029,-94.4395 1039.62,-95.9754 1048.7727,-101.312 1050.1029,-94.4395"/>
</g>
<!-- 11 -->
<g id="node12" class="node">
<title>11</title>
<path fill="none" stroke="#d8bc56" stroke-width="2" d="M1554.5,-180C1554.5,-180 1456.5,-180 1456.5,-180 1450.5,-180 1444.5,-174 1444.5,-168 1444.5,-168 1444.5,-156 1444.5,-156 1444.5,-150 1450.5,-144 1456.5,-144 1456.5,-144 1554.5,-144 1554.5,-144 1560.5,-144 1566.5,-150 1566.5,-156 1566.5,-156 1566.5,-168 1566.5,-168 1566.5,-174 1560.5,-180 1554.5,-180"/>
<text text-anchor="middle" x="1505.5" y="-159.5" font-family="sans" font-size="10.00" fill="#000000">plotQualityProfileRaw</text>
</g>
<!-- 11&#45;&gt;0 -->
<g id="edge4" class="edge">
<title>11&#45;&gt;0</title>
<path fill="none" stroke="#c0c0c0" stroke-width="2" d="M1447.7673,-143.9614C1385.4026,-124.8013 1282.9439,-94.2652 1193.5,-72 1115.848,-52.6701 1023.8687,-34.4625 973.7089,-24.9245"/>
<polygon fill="#c0c0c0" stroke="#c0c0c0" stroke-width="2" points="974.1366,-21.4434 963.6603,-23.0235 972.8354,-28.3214 974.1366,-21.4434"/>
</g>
<!-- 11&#45;&gt;25 -->
<g id="edge52" class="edge">
<title>11&#45;&gt;25</title>
<path fill="none" stroke="#c0c0c0" stroke-width="2" d="M1444.1385,-145.7555C1441.2253,-145.131 1438.3348,-144.5415 1435.5,-144 1295.1281,-117.1866 1126.1707,-100.2976 1049.6867,-93.4698"/>
<polygon fill="#c0c0c0" stroke="#c0c0c0" stroke-width="2" points="1049.7897,-89.9654 1039.5208,-92.5731 1049.1746,-96.9383 1049.7897,-89.9654"/>
</g>
<!-- 12&#45;&gt;0 -->
<g id="edge15" class="edge">
<title>12&#45;&gt;0</title>
<path fill="none" stroke="#c0c0c0" stroke-width="2" d="M1176.4211,-143.9798C1159.7957,-123.8184 1130.3488,-91.4427 1098.5,-72 1059.1721,-47.9916 1007.8858,-33.2311 973.6572,-25.3387"/>
<polygon fill="#c0c0c0" stroke="#c0c0c0" stroke-width="2" points="974.1355,-21.8597 963.6143,-23.1072 972.617,-28.693 974.1355,-21.8597"/>
</g>
<!-- 12&#45;&gt;25 -->
<g id="edge47" class="edge">
<title>12&#45;&gt;25</title>
<path fill="none" stroke="#c0c0c0" stroke-width="2" d="M1144.5737,-143.8314C1115.1838,-132.2046 1077.4022,-117.258 1049.1105,-106.0657"/>
<polygon fill="#c0c0c0" stroke="#c0c0c0" stroke-width="2" points="1050.1148,-102.6991 1039.5285,-102.275 1047.5398,-109.2083 1050.1148,-102.6991"/>
</g>
<!-- 13&#45;&gt;0 -->
<g id="edge14" class="edge">
<title>13&#45;&gt;0</title>
<path fill="none" stroke="#c0c0c0" stroke-width="2" d="M717.7806,-442.0413C691.8349,-433.8989 654.3845,-419.1276 628.5,-396 600.7059,-371.1661 596.1584,-359.716 585.5,-324 553.1103,-215.4636 536.2474,-144.2233 623.5,-72 664.9995,-37.6488 825.4862,-24.2771 899.1522,-19.8709"/>
<polygon fill="#c0c0c0" stroke="#c0c0c0" stroke-width="2" points="899.5836,-23.352 909.3665,-19.2844 899.1823,-16.3635 899.5836,-23.352"/>
</g>
<!-- 13&#45;&gt;29 -->
<g id="edge58" class="edge">
<title>13&#45;&gt;29</title>
<path fill="none" stroke="#c0c0c0" stroke-width="2" d="M747.5,-431.8314C747.5,-424.131 747.5,-414.9743 747.5,-406.4166"/>
<polygon fill="#c0c0c0" stroke="#c0c0c0" stroke-width="2" points="751.0001,-406.4132 747.5,-396.4133 744.0001,-406.4133 751.0001,-406.4132"/>
</g>
<!-- 14&#45;&gt;0 -->
<g id="edge8" class="edge">
<title>14&#45;&gt;0</title>
<path fill="none" stroke="#c0c0c0" stroke-width="2" d="M1062.4381,-431.5823C1070.6572,-404.4106 1084.5,-351.8428 1084.5,-306 1084.5,-306 1084.5,-306 1084.5,-162 1084.5,-118.9187 1077.8981,-103.4921 1048.5,-72 1028.3034,-50.3647 997.6135,-36.4146 973.4639,-28.1235"/>
<polygon fill="#c0c0c0" stroke="#c0c0c0" stroke-width="2" points="974.4912,-24.7773 963.899,-25.0136 972.3267,-31.4342 974.4912,-24.7773"/>
</g>
<!-- 14&#45;&gt;25 -->
<g id="edge50" class="edge">
<title>14&#45;&gt;25</title>
<path fill="none" stroke="#c0c0c0" stroke-width="2" d="M1054.428,-431.8427C1051.4989,-404.5621 1046.5,-351.359 1046.5,-306 1046.5,-306 1046.5,-306 1046.5,-234 1046.5,-192.3681 1031.4672,-146.14 1020.3119,-117.567"/>
<polygon fill="#c0c0c0" stroke="#c0c0c0" stroke-width="2" points="1023.5368,-116.2055 1016.5588,-108.2332 1017.0422,-118.817 1023.5368,-116.2055"/>
</g>
<!-- 15 -->
<g id="node16" class="node">
<title>15</title>
<path fill="none" stroke="#56d0d8" stroke-width="2" d="M1175,-540C1175,-540 1116,-540 1116,-540 1110,-540 1104,-534 1104,-528 1104,-528 1104,-516 1104,-516 1104,-510 1110,-504 1116,-504 1116,-504 1175,-504 1175,-504 1181,-504 1187,-510 1187,-516 1187,-516 1187,-528 1187,-528 1187,-534 1181,-540 1175,-540"/>
<text text-anchor="middle" x="1145.5" y="-519.5" font-family="sans" font-size="10.00" fill="#000000">numSeqParse</text>
</g>
<!-- 15&#45;&gt;14 -->
<g id="edge32" class="edge">
<title>15&#45;&gt;14</title>
<path fill="none" stroke="#c0c0c0" stroke-width="2" d="M1123.0415,-503.8314C1112.0795,-494.9632 1098.7301,-484.1637 1086.8735,-474.5718"/>
<polygon fill="#c0c0c0" stroke="#c0c0c0" stroke-width="2" points="1088.9271,-471.7313 1078.9513,-468.1628 1084.5245,-477.1734 1088.9271,-471.7313"/>
</g>
<!-- 16 -->
<g id="node17" class="node">
<title>16</title>
<path fill="none" stroke="#61d856" stroke-width="2" d="M1196,-612C1196,-612 1133,-612 1133,-612 1127,-612 1121,-606 1121,-600 1121,-600 1121,-588 1121,-588 1121,-582 1127,-576 1133,-576 1133,-576 1196,-576 1196,-576 1202,-576 1208,-582 1208,-588 1208,-588 1208,-600 1208,-600 1208,-606 1202,-612 1196,-612"/>
<text text-anchor="middle" x="1164.5" y="-591.5" font-family="sans" font-size="10.00" fill="#000000">rawReadCount</text>
</g>
<!-- 16&#45;&gt;15 -->
<g id="edge36" class="edge">
<title>16&#45;&gt;15</title>
<path fill="none" stroke="#c0c0c0" stroke-width="2" d="M1159.7055,-575.8314C1157.6511,-568.0463 1155.204,-558.7729 1152.9244,-550.1347"/>
<polygon fill="#c0c0c0" stroke="#c0c0c0" stroke-width="2" points="1156.2948,-549.1892 1150.3591,-540.4133 1149.5265,-550.9753 1156.2948,-549.1892"/>
</g>
<!-- 17 -->
<g id="node18" class="node">
<title>17</title>
<path fill="none" stroke="#70d856" stroke-width="2" d="M1630.5,-684C1630.5,-684 1586.5,-684 1586.5,-684 1580.5,-684 1574.5,-678 1574.5,-672 1574.5,-672 1574.5,-660 1574.5,-660 1574.5,-654 1580.5,-648 1586.5,-648 1586.5,-648 1630.5,-648 1630.5,-648 1636.5,-648 1642.5,-654 1642.5,-660 1642.5,-660 1642.5,-672 1642.5,-672 1642.5,-678 1636.5,-684 1630.5,-684"/>
<text text-anchor="middle" x="1608.5" y="-663.5" font-family="sans" font-size="10.00" fill="#000000">multiqcFilt</text>
</g>
<!-- 17&#45;&gt;0 -->
<g id="edge9" class="edge">
<title>17&#45;&gt;0</title>
<path fill="none" stroke="#c0c0c0" stroke-width="2" d="M1613.4728,-647.9753C1620.5026,-620.864 1632.5,-567.8742 1632.5,-522 1632.5,-522 1632.5,-522 1632.5,-162 1632.5,-120.6022 1640.2907,-98.5166 1608.5,-72 1559.6032,-31.2153 1108.2827,-20.7493 974.0107,-18.5274"/>
<polygon fill="#c0c0c0" stroke="#c0c0c0" stroke-width="2" points="973.8685,-15.0248 963.8138,-18.3646 973.7567,-22.0239 973.8685,-15.0248"/>
</g>
<!-- 18&#45;&gt;17 -->
<g id="edge37" class="edge">
<title>18&#45;&gt;17</title>
<path fill="none" stroke="#c0c0c0" stroke-width="2" d="M1606.7533,-791.7623C1607.0944,-767.201 1607.7049,-723.2474 1608.1062,-694.3541"/>
<polygon fill="#c0c0c0" stroke="#c0c0c0" stroke-width="2" points="1611.6094,-694.1373 1608.2488,-684.0896 1604.6101,-694.04 1611.6094,-694.1373"/>
</g>
<!-- 19 -->
<g id="node20" class="node">
<title>19</title>
<path fill="none" stroke="#d8a456" stroke-width="2" d="M1760.5,-108C1760.5,-108 1710.5,-108 1710.5,-108 1704.5,-108 1698.5,-102 1698.5,-96 1698.5,-96 1698.5,-84 1698.5,-84 1698.5,-78 1704.5,-72 1710.5,-72 1710.5,-72 1760.5,-72 1760.5,-72 1766.5,-72 1772.5,-78 1772.5,-84 1772.5,-84 1772.5,-96 1772.5,-96 1772.5,-102 1766.5,-108 1760.5,-108"/>
<text text-anchor="middle" x="1735.5" y="-87.5" font-family="sans" font-size="10.00" fill="#000000">multiqcRaw</text>
</g>
<!-- 19&#45;&gt;0 -->
<g id="edge3" class="edge">
<title>19&#45;&gt;0</title>
<path fill="none" stroke="#c0c0c0" stroke-width="2" d="M1698.2243,-75.569C1693.652,-74.179 1689.0039,-72.9396 1684.5,-72 1546.2901,-43.1652 1105.4128,-24.4306 973.8863,-19.3778"/>
<polygon fill="#c0c0c0" stroke="#c0c0c0" stroke-width="2" points="974.0193,-15.8804 963.8934,-18.9974 973.753,-22.8753 974.0193,-15.8804"/>
</g>
<!-- 20 -->
<g id="node21" class="node">
<title>20</title>
<path fill="none" stroke="#5663d8" stroke-width="2" d="M1757.5,-180C1757.5,-180 1713.5,-180 1713.5,-180 1707.5,-180 1701.5,-174 1701.5,-168 1701.5,-168 1701.5,-156 1701.5,-156 1701.5,-150 1707.5,-144 1713.5,-144 1713.5,-144 1757.5,-144 1757.5,-144 1763.5,-144 1769.5,-150 1769.5,-156 1769.5,-156 1769.5,-168 1769.5,-168 1769.5,-174 1763.5,-180 1757.5,-180"/>
<text text-anchor="middle" x="1735.5" y="-159.5" font-family="sans" font-size="10.00" fill="#000000">fastqcRaw</text>
</g>
<!-- 20&#45;&gt;19 -->
<g id="edge39" class="edge">
<title>20&#45;&gt;19</title>
<path fill="none" stroke="#c0c0c0" stroke-width="2" d="M1735.5,-143.8314C1735.5,-136.131 1735.5,-126.9743 1735.5,-118.4166"/>
<polygon fill="#c0c0c0" stroke="#c0c0c0" stroke-width="2" points="1739.0001,-118.4132 1735.5,-108.4133 1732.0001,-118.4133 1739.0001,-118.4132"/>
</g>
<!-- 21 -->
<g id="node22" class="node">
<title>21</title>
<path fill="none" stroke="#56d86b" stroke-width="2" d="M407,-108C407,-108 324,-108 324,-108 318,-108 312,-102 312,-96 312,-96 312,-84 312,-84 312,-78 318,-72 324,-72 324,-72 407,-72 407,-72 413,-72 419,-78 419,-84 419,-84 419,-96 419,-96 419,-102 413,-108 407,-108"/>
<text text-anchor="middle" x="365.5" y="-87.5" font-family="sans" font-size="10.00" fill="#000000">seqkit_counts_raw</text>
</g>
<!-- 21&#45;&gt;0 -->
<g id="edge11" class="edge">
<title>21&#45;&gt;0</title>
<path fill="none" stroke="#c0c0c0" stroke-width="2" d="M419.1256,-73.8018C421.9468,-73.1472 424.7505,-72.5405 427.5,-72 602.0535,-37.6826 814.8641,-24.0156 899.3594,-19.6874"/>
<polygon fill="#c0c0c0" stroke="#c0c0c0" stroke-width="2" points="899.6706,-23.1764 909.4838,-19.1825 899.3218,-16.1851 899.6706,-23.1764"/>
</g>
<!-- 22 -->
<g id="node23" class="node">
<title>22</title>
<path fill="none" stroke="#d86656" stroke-width="2" d="M372,-180C372,-180 323,-180 323,-180 317,-180 311,-174 311,-168 311,-168 311,-156 311,-156 311,-150 317,-144 323,-144 323,-144 372,-144 372,-144 378,-144 384,-150 384,-156 384,-156 384,-168 384,-168 384,-174 378,-180 372,-180"/>
<text text-anchor="middle" x="347.5" y="-159.5" font-family="sans" font-size="10.00" fill="#000000">list_sample</text>
</g>
<!-- 22&#45;&gt;21 -->
<g id="edge40" class="edge">
<title>22&#45;&gt;21</title>
<path fill="none" stroke="#c0c0c0" stroke-width="2" d="M352.0422,-143.8314C353.9884,-136.0463 356.3068,-126.7729 358.4663,-118.1347"/>
<polygon fill="#c0c0c0" stroke="#c0c0c0" stroke-width="2" points="361.8668,-118.9636 360.8967,-108.4133 355.0758,-117.2658 361.8668,-118.9636"/>
</g>
<!-- 22&#45;&gt;23 -->
<g id="edge41" class="edge">
<title>22&#45;&gt;23</title>
<path fill="none" stroke="#c0c0c0" stroke-width="2" d="M384.3315,-144.2022C404.1497,-134.6256 428.7941,-122.7169 449.9311,-112.5031"/>
<polygon fill="#c0c0c0" stroke="#c0c0c0" stroke-width="2" points="451.5762,-115.5954 459.0573,-108.0931 448.5306,-109.2927 451.5762,-115.5954"/>
</g>
<!-- 22&#45;&gt;24 -->
<g id="edge43" class="edge">
<title>22&#45;&gt;24</title>
<path fill="none" stroke="#c0c0c0" stroke-width="2" d="M317.2189,-143.8314C301.8702,-134.6221 283.0502,-123.3301 266.6177,-113.4706"/>
<polygon fill="#c0c0c0" stroke="#c0c0c0" stroke-width="2" points="268.1471,-110.3066 257.7714,-108.1628 264.5456,-116.3091 268.1471,-110.3066"/>
</g>
<!-- 22&#45;&gt;33 -->
<g id="edge64" class="edge">
<title>22&#45;&gt;33</title>
<path fill="none" stroke="#c0c0c0" stroke-width="2" d="M310.8493,-152.439C270.1265,-141.8156 203.1616,-124.3465 150.4038,-110.5836"/>
<polygon fill="#c0c0c0" stroke="#c0c0c0" stroke-width="2" points="151.2873,-107.197 140.7276,-108.0594 149.5203,-113.9703 151.2873,-107.197"/>
</g>
<!-- 23&#45;&gt;0 -->
<g id="edge19" class="edge">
<title>23&#45;&gt;0</title>
<path fill="none" stroke="#c0c0c0" stroke-width="2" d="M556.1705,-74.9858C561.0068,-73.9215 565.8281,-72.9108 570.5,-72 689.8832,-48.7248 832.917,-30.3357 899.2863,-22.34"/>
<polygon fill="#c0c0c0" stroke="#c0c0c0" stroke-width="2" points="899.7509,-25.8095 909.2646,-21.1468 898.9197,-18.859 899.7509,-25.8095"/>
</g>
<!-- 24&#45;&gt;0 -->
<g id="edge18" class="edge">
<title>24&#45;&gt;0</title>
<path fill="none" stroke="#c0c0c0" stroke-width="2" d="M293.6441,-73.5542C296.6296,-72.9923 299.5918,-72.4701 302.5,-72 527.4048,-35.6458 801.4074,-22.8198 899.437,-19.2071"/>
<polygon fill="#c0c0c0" stroke="#c0c0c0" stroke-width="2" points="899.573,-22.7045 909.441,-18.8482 899.3219,-15.709 899.573,-22.7045"/>
</g>
<!-- 25&#45;&gt;0 -->
<g id="edge10" class="edge">
<title>25&#45;&gt;0</title>
<path fill="none" stroke="#c0c0c0" stroke-width="2" d="M990.3314,-71.8314C981.7848,-63.2848 971.4443,-52.9443 962.1198,-43.6198"/>
<polygon fill="#c0c0c0" stroke="#c0c0c0" stroke-width="2" points="964.4592,-41.0095 954.9133,-36.4133 959.5095,-45.9592 964.4592,-41.0095"/>
</g>
<!-- 26 -->
<g id="node27" class="node">
<title>26</title>
<path fill="none" stroke="#5673d8" stroke-width="2" d="M926.5,-324C926.5,-324 824.5,-324 824.5,-324 818.5,-324 812.5,-318 812.5,-312 812.5,-312 812.5,-300 812.5,-300 812.5,-294 818.5,-288 824.5,-288 824.5,-288 926.5,-288 926.5,-288 932.5,-288 938.5,-294 938.5,-300 938.5,-300 938.5,-312 938.5,-312 938.5,-318 932.5,-324 926.5,-324"/>
<text text-anchor="middle" x="875.5" y="-303.5" font-family="sans" font-size="10.00" fill="#000000">separate_vsearch_hits</text>
</g>
<!-- 26&#45;&gt;25 -->
<g id="edge46" class="edge">
<title>26&#45;&gt;25</title>
<path fill="none" stroke="#c0c0c0" stroke-width="2" d="M907.7287,-287.8865C922.3648,-278.5354 939.1291,-266.1239 951.5,-252 985.3256,-213.3812 999.4354,-153.4241 1005.0486,-118.3044"/>
<polygon fill="#c0c0c0" stroke="#c0c0c0" stroke-width="2" points="1008.5343,-118.6573 1006.5303,-108.2537 1001.6092,-117.6363 1008.5343,-118.6573"/>
</g>
<!-- 30 -->
<g id="node31" class="node">
<title>30</title>
<path fill="none" stroke="#56d89a" stroke-width="2" d="M862,-180C862,-180 805,-180 805,-180 799,-180 793,-174 793,-168 793,-168 793,-156 793,-156 793,-150 799,-144 805,-144 805,-144 862,-144 862,-144 868,-144 874,-150 874,-156 874,-156 874,-168 874,-168 874,-174 868,-180 862,-180"/>
<text text-anchor="middle" x="833.5" y="-159.5" font-family="sans" font-size="10.00" fill="#000000">vsearchParse</text>
</g>
<!-- 26&#45;&gt;30 -->
<g id="edge59" class="edge">
<title>26&#45;&gt;30</title>
<path fill="none" stroke="#c0c0c0" stroke-width="2" d="M860.8559,-287.6298C853.7437,-277.6714 845.8194,-264.807 841.5,-252 834.7845,-232.0887 832.9066,-208.3723 832.6422,-190.285"/>
<polygon fill="#c0c0c0" stroke="#c0c0c0" stroke-width="2" points="836.1423,-190.1003 832.6529,-180.0966 829.1423,-190.0929 836.1423,-190.1003"/>
</g>
<!-- 31 -->
<g id="node32" class="node">
<title>31</title>
<path fill="none" stroke="#56d8b9" stroke-width="2" d="M930.5,-252C930.5,-252 862.5,-252 862.5,-252 856.5,-252 850.5,-246 850.5,-240 850.5,-240 850.5,-228 850.5,-228 850.5,-222 856.5,-216 862.5,-216 862.5,-216 930.5,-216 930.5,-216 936.5,-216 942.5,-222 942.5,-228 942.5,-228 942.5,-240 942.5,-240 942.5,-246 936.5,-252 930.5,-252"/>
<text text-anchor="middle" x="896.5" y="-231.5" font-family="sans" font-size="10.00" fill="#000000">vsearchFieldDB</text>
</g>
<!-- 26&#45;&gt;31 -->
<g id="edge62" class="edge">
<title>26&#45;&gt;31</title>
<path fill="none" stroke="#c0c0c0" stroke-width="2" d="M880.7992,-287.8314C883.0698,-280.0463 885.7746,-270.7729 888.294,-262.1347"/>
<polygon fill="#c0c0c0" stroke="#c0c0c0" stroke-width="2" points="891.6894,-262.9933 891.1295,-252.4133 884.9694,-261.0332 891.6894,-262.9933"/>
</g>
<!-- 27 -->
<g id="node28" class="node">
<title>27</title>
<path fill="none" stroke="#5682d8" stroke-width="2" d="M903,-396C903,-396 844,-396 844,-396 838,-396 832,-390 832,-384 832,-384 832,-372 832,-372 832,-366 838,-360 844,-360 844,-360 903,-360 903,-360 909,-360 915,-366 915,-372 915,-372 915,-384 915,-384 915,-390 909,-396 903,-396"/>
<text text-anchor="middle" x="873.5" y="-375.5" font-family="sans" font-size="10.00" fill="#000000">vsearchGTDB</text>
</g>
<!-- 27&#45;&gt;26 -->
<g id="edge53" class="edge">
<title>27&#45;&gt;26</title>
<path fill="none" stroke="#c0c0c0" stroke-width="2" d="M874.0047,-359.8314C874.2186,-352.131 874.4729,-342.9743 874.7106,-334.4166"/>
<polygon fill="#c0c0c0" stroke="#c0c0c0" stroke-width="2" points="878.2094,-334.5066 874.9885,-324.4133 871.2121,-334.3122 878.2094,-334.5066"/>
</g>
<!-- 28&#45;&gt;0 -->
<g id="edge7" class="edge">
<title>28&#45;&gt;0</title>
<path fill="none" stroke="#c0c0c0" stroke-width="2" d="M813.4517,-440.3506C764.5395,-425.1281 674.9076,-397.1372 673.5,-396 605.1165,-340.756 571.0655,-301.5022 591.5,-216 608.1791,-146.2114 607.3255,-115.3557 664.5,-72 700.9295,-44.3754 833.0184,-28.0177 898.7756,-21.4141"/>
<polygon fill="#c0c0c0" stroke="#c0c0c0" stroke-width="2" points="899.5019,-24.8598 909.1131,-20.4017 898.8195,-17.8931 899.5019,-24.8598"/>
</g>
<!-- 28&#45;&gt;27 -->
<g id="edge55" class="edge">
<title>28&#45;&gt;27</title>
<path fill="none" stroke="#c0c0c0" stroke-width="2" d="M851.8179,-431.8314C854.9876,-423.9617 858.77,-414.5712 862.2813,-405.8533"/>
<polygon fill="#c0c0c0" stroke="#c0c0c0" stroke-width="2" points="865.5939,-406.9968 866.0835,-396.4133 859.1008,-404.3815 865.5939,-406.9968"/>
</g>
<!-- 29&#45;&gt;0 -->
<g id="edge2" class="edge">
<title>29&#45;&gt;0</title>
<path fill="none" stroke="#c0c0c0" stroke-width="2" d="M739.2291,-359.7881C727.781,-332.8727 708.5,-280.6212 708.5,-234 708.5,-234 708.5,-234 708.5,-162 708.5,-72.8601 834.6219,-36.6601 899.259,-23.961"/>
<polygon fill="#c0c0c0" stroke="#c0c0c0" stroke-width="2" points="900.2647,-27.3336 909.4501,-22.0535 898.9768,-20.4531 900.2647,-27.3336"/>
</g>
<!-- 29&#45;&gt;25 -->
<g id="edge48" class="edge">
<title>29&#45;&gt;25</title>
<path fill="none" stroke="#c0c0c0" stroke-width="2" d="M744.3181,-359.9519C737.7825,-316.5397 727.8614,-205.3449 784.5,-144 808.833,-117.6451 909.0026,-101.7147 966.8143,-94.5371"/>
<polygon fill="#c0c0c0" stroke="#c0c0c0" stroke-width="2" points="967.5792,-97.9703 977.0882,-93.2982 966.7411,-91.0206 967.5792,-97.9703"/>
</g>
<!-- 29&#45;&gt;26 -->
<g id="edge54" class="edge">
<title>29&#45;&gt;26</title>
<path fill="none" stroke="#c0c0c0" stroke-width="2" d="M779.7998,-359.8314C796.3234,-350.5368 816.6186,-339.1208 834.2607,-329.1971"/>
<polygon fill="#c0c0c0" stroke="#c0c0c0" stroke-width="2" points="836.2107,-332.116 843.2105,-324.1628 832.7788,-326.015 836.2107,-332.116"/>
</g>
<!-- 29&#45;&gt;30 -->
<g id="edge60" class="edge">
<title>29&#45;&gt;30</title>
<path fill="none" stroke="#c0c0c0" stroke-width="2" d="M754.6844,-359.9555C769.7344,-322.1556 804.6539,-234.4506 822.5285,-189.5564"/>
<polygon fill="#c0c0c0" stroke="#c0c0c0" stroke-width="2" points="825.8282,-190.7305 826.2756,-180.1451 819.3247,-188.1411 825.8282,-190.7305"/>
</g>
<!-- 32 -->
<g id="node33" class="node">
<title>32</title>
<path fill="none" stroke="#c6d856" stroke-width="2" d="M668.5,-252C668.5,-252 612.5,-252 612.5,-252 606.5,-252 600.5,-246 600.5,-240 600.5,-240 600.5,-228 600.5,-228 600.5,-222 606.5,-216 612.5,-216 612.5,-216 668.5,-216 668.5,-216 674.5,-216 680.5,-222 680.5,-228 680.5,-228 680.5,-240 680.5,-240 680.5,-246 674.5,-252 668.5,-252"/>
<text text-anchor="middle" x="640.5" y="-231.5" font-family="sans" font-size="10.00" fill="#000000">prepareFasta</text>
</g>
<!-- 29&#45;&gt;32 -->
<g id="edge63" class="edge">
<title>29&#45;&gt;32</title>
<path fill="none" stroke="#c0c0c0" stroke-width="2" d="M727.4514,-359.7686C717.005,-349.7468 704.3838,-336.7816 694.5,-324 679.1229,-304.1145 664.6375,-279.5255 654.5481,-261.0769"/>
<polygon fill="#c0c0c0" stroke="#c0c0c0" stroke-width="2" points="657.5105,-259.1958 649.6913,-252.0467 651.3456,-262.5115 657.5105,-259.1958"/>
</g>
<!-- 30&#45;&gt;0 -->
<g id="edge12" class="edge">
<title>30&#45;&gt;0</title>
<path fill="none" stroke="#c0c0c0" stroke-width="2" d="M846.545,-143.7623C864.5001,-118.66 896.9439,-73.3017 917.5687,-44.4671"/>
<polygon fill="#c0c0c0" stroke="#c0c0c0" stroke-width="2" points="920.5899,-46.2594 923.5609,-36.0896 914.8964,-42.1869 920.5899,-46.2594"/>
</g>
<!-- 30&#45;&gt;25 -->
<g id="edge45" class="edge">
<title>30&#45;&gt;25</title>
<path fill="none" stroke="#c0c0c0" stroke-width="2" d="M874.0884,-145.3008C902.2685,-133.7067 939.6654,-118.3205 967.8574,-106.7215"/>
<polygon fill="#c0c0c0" stroke="#c0c0c0" stroke-width="2" points="969.499,-109.8309 977.4152,-102.7892 966.8356,-103.3573 969.499,-109.8309"/>
</g>
<!-- 31&#45;&gt;30 -->
<g id="edge61" class="edge">
<title>31&#45;&gt;30</title>
<path fill="none" stroke="#c0c0c0" stroke-width="2" d="M880.6024,-215.8314C873.2722,-207.454 864.434,-197.3531 856.4031,-188.1749"/>
<polygon fill="#c0c0c0" stroke="#c0c0c0" stroke-width="2" points="858.8307,-185.6343 849.6116,-180.4133 853.5627,-190.2438 858.8307,-185.6343"/>
</g>
<!-- 32&#45;&gt;0 -->
<g id="edge5" class="edge">
<title>32&#45;&gt;0</title>
<path fill="none" stroke="#c0c0c0" stroke-width="2" d="M641.0151,-215.8389C642.9987,-182.1954 652.2473,-110.1407 694.5,-72 724.2674,-45.1296 838.8872,-28.7686 899.0835,-21.8524"/>
<polygon fill="#c0c0c0" stroke="#c0c0c0" stroke-width="2" points="899.7587,-25.2988 909.3076,-20.7086 898.9804,-18.3422 899.7587,-25.2988"/>
</g>
<!-- 33&#45;&gt;0 -->
<g id="edge6" class="edge">
<title>33&#45;&gt;0</title>
<path fill="none" stroke="#c0c0c0" stroke-width="2" d="M143.3855,-73.4388C146.4582,-72.9166 149.506,-72.4333 152.5,-72 437.6601,-30.7326 785.8807,-20.803 899.054,-18.5912"/>
<polygon fill="#c0c0c0" stroke="#c0c0c0" stroke-width="2" points="899.3297,-22.0867 909.2625,-18.4004 899.1989,-15.0879 899.3297,-22.0867"/>
</g>
<!-- 34&#45;&gt;0 -->
<g id="edge17" class="edge">
<title>34&#45;&gt;0</title>
<path fill="none" stroke="#c0c0c0" stroke-width="2" d="M1535.812,-868.6909C1579.3964,-858.7751 1630.8452,-844.1954 1646.5,-828 1675.2717,-798.2348 1670.5,-779.3978 1670.5,-738 1670.5,-738 1670.5,-738 1670.5,-162 1670.5,-118.7517 1668.4704,-97.4458 1633.5,-72 1579.9376,-33.026 1110.8437,-21.2538 973.8876,-18.6324"/>
<polygon fill="#c0c0c0" stroke="#c0c0c0" stroke-width="2" points="973.9366,-15.1328 963.8731,-18.4458 973.8061,-22.1316 973.9366,-15.1328"/>
</g>
</g>
</svg>
